<svg width="25" height="24" viewBox="0 0 25 24" fill="none" xmlns="http://www.w3.org/2000/svg">
<g clip-path="url(#clip0_18_1899)">
<path d="M20.3435 15.38C19.1135 15.38 17.9235 15.18 16.8135 14.82C16.4635 14.7 16.0735 14.79 15.8035 15.06L14.2335 17.03C11.4035 15.68 8.7535 13.13 7.3435 10.2L9.2935 8.54C9.5635 8.26 9.6435 7.87 9.5335 7.52C9.1635 6.41 8.9735 5.22 8.9735 3.99C8.9735 3.45 8.5235 3 7.9835 3H4.5235C3.9835 3 3.3335 3.24 3.3335 3.99C3.3335 13.28 11.0635 21 20.3435 21C21.0535 21 21.3335 20.37 21.3335 19.82V16.37C21.3335 15.83 20.8835 15.38 20.3435 15.38Z" fill="white"/>
</g>
<defs>
<clipPath id="clip0_18_1899">
<rect width="24" height="24" fill="white" transform="translate(0.333496)"/>
</clipPath>
</defs>
</svg>
