<svg width="52" height="52" viewBox="0 0 52 52" fill="none" xmlns="http://www.w3.org/2000/svg">
<g id="Frame" clip-path="url(#clip0_18_1450)">
<g id="Group">
<path id="Vector" d="M26.0003 0.000457764C11.6407 0.000457764 0 11.6401 0 26.0008C0 40.3592 11.6407 51.9999 26.0003 51.9999C40.3593 51.9999 52 40.3592 52 26.0008C52 11.64 40.3593 0.000457764 26.0003 0.000457764Z" fill="#255986"/>
<path id="Vector_2" d="M41.3791 40.1125C40.6127 37.2535 34.0525 34.9421 25.965 34.9421C17.8776 34.9421 11.3872 37.2535 10.6208 40.1125C10.2793 41.3867 9.89117 43.8008 9.55957 46.1414C14.0397 49.8027 19.7631 51.9997 26.0004 51.9997C32.2372 51.9997 37.9603 49.8027 42.4403 46.1415C42.1087 43.8009 41.7206 41.3867 41.3791 40.1125Z" fill="black"/>
<path id="Vector_3" d="M25.9738 33.2229L21.8315 33.7731L22.0266 35.153L25.9694 38.0952L29.9733 35.153L30.1684 33.7731L25.9738 33.2229Z" fill="#969899"/>
<path id="Vector_4" d="M25.974 33.2229L22.0269 35.1531C22.0269 35.1531 23.7905 38.0953 25.9696 38.0953C28.1487 38.0953 29.9736 35.1531 29.9736 35.1531L25.974 33.2229Z" fill="#7F3E09"/>
<path id="Vector_5" d="M25.9694 36.9697C23.829 36.9697 22.759 36.0821 22.3084 35.5478L26.0078 40.8823L29.7568 35.4542C29.3401 35.9702 28.2404 36.9697 25.9694 36.9697ZM22.3084 35.5478L22.0347 35.153C22.0347 35.153 22.1146 35.3179 22.3084 35.5478ZM29.7569 35.4542C29.902 35.2746 29.9649 35.1531 29.9649 35.1531L29.7569 35.4542Z" fill="white"/>
<path id="Vector_6" d="M30.0761 29.5675H21.9243C23.1962 33.4021 22.0268 35.153 22.0268 35.153L24.8473 36.9697H27.1531L29.9736 35.1531C29.9736 35.1531 28.8042 33.4021 30.0761 29.5675Z" fill="#CDCDCD"/>
<path id="Vector_7" d="M30.1683 33.7731L25.9977 36.9696C25.9977 36.9696 29.5642 37.5994 29.5818 37.5819L32.0435 35.4024L30.1683 33.7731ZM21.8314 33.7731L19.9561 35.4025L22.4178 37.582C22.4354 37.5995 25.9977 36.9697 25.9977 36.9697L21.8314 33.7731Z" fill="#F3FAFF"/>
<path id="Vector_8" d="M26 6.4538C20.8917 6.4538 16.7505 8.67221 16.7505 18.3593C16.7505 21.6361 17.3992 24.2037 18.371 26.1854C20.5086 30.5451 24.2086 32.0687 26 32.0687C27.7913 32.0687 31.4914 30.5451 33.6288 26.1854C34.6004 24.2037 35.2493 21.6361 35.2493 18.3593C35.2493 8.67221 31.1081 6.4538 26 6.4538Z" fill="white"/>
<path id="Vector_9" d="M36.6469 16.0499C36.6469 16.0499 37.4867 14.4216 35.3492 13.0057C35.3492 13.0057 36.4179 12.7935 36.5705 13.289C36.5705 13.289 36.0361 10.6697 34.4331 9.96173C34.4331 9.96173 35.1202 9.74939 36.0361 10.6697C36.0361 10.6697 35.6545 8.6875 33.3646 8.05039C33.3646 8.05039 33.8225 7.83806 34.5858 8.19209C34.5858 8.19209 33.9752 6.91776 32.0668 6.49299C32.0668 6.49299 31.9141 5.85598 32.7538 5.92672C32.7538 5.92672 31.0746 5.14802 29.4716 5.07717C29.4716 5.07717 30.006 3.94464 30.9219 3.94464C30.9219 3.94464 28.7082 3.30753 27.1817 4.15687C27.1817 4.15687 26.3419 3.80295 26.8764 3.51976C26.8764 3.51976 22.7544 3.37817 22.5254 5.57279C22.5254 5.57279 21.3804 5.50195 20.3881 5.00643C20.3881 5.00643 19.3957 5.71439 20.3117 6.56383C20.3117 6.56383 17.9454 6.63468 16.8767 8.33368C16.8767 8.33368 17.4111 8.12135 18.098 8.19209C18.098 8.19209 16.2661 9.11228 16.037 10.6698C16.037 10.6698 16.5713 10.4575 17.182 10.5281C17.182 10.5281 16.1134 11.1652 15.6554 12.4394C15.6554 12.4394 16.1134 12.2978 16.8004 12.2272C16.8004 12.2272 14.4341 14.0678 14.4341 16.687C14.4341 16.687 15.3501 15.2712 15.8844 15.2712C15.8844 15.2712 15.579 17.5364 16.1898 20.085C16.1898 20.085 16.5714 18.8816 16.9531 18.9523C16.9531 18.9523 16.8767 20.9344 18.0981 22.2795C18.0981 22.2795 18.0981 17.6781 18.9377 17.6072C18.9377 17.6072 19.3958 18.2444 19.9301 18.6692C19.9301 18.6692 18.9377 13.0767 21.3805 12.6519C21.3805 12.6519 22.1438 16.8287 25.1208 17.3949C25.1208 17.3949 24.1285 14.4217 24.2049 13.2891C24.2049 13.2891 27.4109 14.7756 28.4033 17.7489C28.4033 17.7489 28.7849 16.1207 28.2506 13.643C28.2506 13.643 29.8536 14.4924 29.7009 17.3242C29.7009 17.3242 30.9221 16.8286 30.9986 15.2004C30.9986 15.2004 31.9908 16.7577 31.533 18.386C31.533 18.386 31.7621 18.7399 32.22 17.9612C32.22 17.9612 34.0702 18.8733 33.9654 21.8546C33.9654 21.8546 35.8997 19.3973 35.3016 16.8993C35.3016 16.8993 35.8497 18.2444 35.7733 19.1647C35.7733 19.1647 36.2655 17.1116 35.7313 14.7048C35.731 14.7048 36.4179 15.2711 36.6469 16.0499Z" fill="black"/>
<path id="Vector_10" d="M22.2269 18.7576C20.4711 18.7576 19.0479 19.0646 19.0479 21.2569C19.0479 22.6373 19.8371 24.0194 22.2269 24.0194C23.9825 24.0194 25.4059 22.6373 25.4059 21.2569C25.4059 19.8766 23.9825 18.7576 22.2269 18.7576ZM22.2269 23.4751C20.3316 23.4751 19.7055 22.379 19.7055 21.2842C19.7055 19.5453 20.8344 19.3019 22.2269 19.3019C23.6194 19.3019 24.7482 20.1894 24.7482 21.2842C24.7482 22.379 23.6194 23.4751 22.2269 23.4751Z" fill="#261D17"/>
<path id="Vector_11" d="M22.227 19.302C20.8344 19.302 19.7056 19.5454 19.7056 21.2843C19.7056 22.3791 20.3317 23.4752 22.227 23.4752C23.6194 23.4752 24.7483 22.3791 24.7483 21.2843C24.7483 20.1895 23.6194 19.302 22.227 19.302Z" fill="#F4C4A4"/>
<path id="Vector_12" d="M22.227 19.302C20.8344 19.302 19.7056 19.5454 19.7056 21.2843C19.7056 22.2024 20.1463 23.1209 21.406 23.3937L22.9148 19.3773C22.689 19.3271 22.4583 19.3019 22.227 19.302Z" fill="white"/>
<path id="Vector_13" d="M22.915 19.3773L21.4062 23.3937C21.6488 23.4462 21.9212 23.4751 22.2272 23.4751C23.6196 23.4751 24.7485 22.379 24.7485 21.2842C24.7485 20.3771 23.973 19.6128 22.915 19.3773Z" fill="white"/>
<path id="Vector_14" d="M19.6634 19.9879L18.4408 18.6603C18.3843 18.5989 18.3057 18.5625 18.2224 18.5591C18.1391 18.5557 18.0578 18.5855 17.9965 18.642C17.9351 18.6985 17.8987 18.777 17.8953 18.8604C17.8919 18.9437 17.9217 19.025 17.9782 19.0863L19.2008 20.4139C19.2302 20.4459 19.266 20.4715 19.3058 20.489C19.3457 20.5064 19.3887 20.5154 19.4322 20.5153C19.4933 20.5153 19.553 20.4975 19.6042 20.464C19.6553 20.4306 19.6955 20.383 19.72 20.3271C19.7446 20.2711 19.7523 20.2093 19.7422 20.149C19.7322 20.0888 19.7048 20.0328 19.6634 19.9879ZM34.0733 18.642C34.043 18.6141 34.0074 18.5923 33.9686 18.5781C33.9299 18.5638 33.8887 18.5574 33.8474 18.5591C33.8061 18.5608 33.7656 18.5706 33.7282 18.5879C33.6907 18.6053 33.657 18.6299 33.6291 18.6603L32.4064 19.9879C32.3503 20.0493 32.3208 20.1304 32.3244 20.2135C32.328 20.2966 32.3643 20.3749 32.4255 20.4313C32.4867 20.4876 32.5678 20.5174 32.6509 20.5141C32.734 20.5108 32.8124 20.4748 32.869 20.4138L34.0917 19.0862C34.1196 19.0558 34.1413 19.0203 34.1555 18.9815C34.1698 18.9428 34.1762 18.9016 34.1745 18.8603C34.1728 18.8191 34.163 18.7786 34.1456 18.7411C34.1283 18.7037 34.1037 18.67 34.0733 18.642Z" fill="#261D17"/>
<path id="Vector_15" d="M29.7732 18.7576C28.0176 18.7576 26.5942 19.8766 26.5942 21.2569C26.5942 22.6373 28.0176 24.0194 29.7732 24.0194C32.163 24.0194 32.9522 22.6373 32.9522 21.2569C32.9522 19.0646 31.529 18.7576 29.7732 18.7576ZM29.7732 23.4751C28.3808 23.4751 27.2519 22.379 27.2519 21.2842C27.2519 20.1894 28.3808 19.3019 29.7732 19.3019C31.1657 19.3019 32.2946 19.5453 32.2946 21.2842C32.2946 22.379 31.6685 23.4751 29.7732 23.4751Z" fill="#261D17"/>
<path id="Vector_16" d="M29.7728 19.302C28.3803 19.302 27.2515 20.1895 27.2515 21.2843C27.2515 22.3791 28.3803 23.4752 29.7728 23.4752C31.6681 23.4752 32.2942 22.3791 32.2942 21.2843C32.2942 19.5454 31.1653 19.302 29.7728 19.302Z" fill="#F4C4A4"/>
<path id="Vector_17" d="M29.7731 19.302C29.5346 19.302 29.304 19.3286 29.0853 19.3773C28.0273 19.6128 27.252 20.3771 27.252 21.2843C27.252 22.1899 28.0246 23.0957 29.0795 23.3819L30.5963 19.3447C30.3382 19.3128 30.0615 19.302 29.7731 19.302Z" fill="white"/>
<path id="Vector_18" d="M30.5963 19.3447L29.0796 23.3819C29.3056 23.4436 29.5389 23.475 29.7732 23.4752C30.0792 23.4752 30.3516 23.4463 30.5941 23.3938C31.8539 23.121 32.2946 22.2023 32.2946 21.2844C32.2946 19.9054 31.5844 19.4671 30.5963 19.3447Z" fill="white"/>
<path id="Vector_19" d="M27.3833 20.5109H24.6161C24.5908 20.5109 25.1185 21.6027 25.1389 21.6027L27.1248 21.6025C27.1455 21.6024 27.409 20.5109 27.3833 20.5109Z" fill="#261D17"/>
<path id="Vector_20" d="M26.9503 21.6157C26.6759 21.4222 26.3432 21.2314 25.9889 21.2314C25.7188 21.2314 25.4616 21.3765 25.233 21.4922C24.8738 21.6737 24.8735 22.6614 24.8735 22.6614C25.0784 22.2335 25.5165 21.9571 25.9889 21.9571C26.4612 21.9571 26.8992 22.2336 27.1042 22.6614C27.1042 22.6614 27.2131 21.801 26.9503 21.6157Z" fill="#261D17"/>
<path id="Vector_21" d="M16.9152 18.6573C16.0309 18.8086 15.3582 19.1894 15.8571 22.1077C16.356 25.026 16.9757 25.1619 17.8601 25.0106L16.9152 18.6573ZM35.0951 18.6573L34.1502 25.0106C35.0346 25.1619 35.6542 25.0261 36.1532 22.1077C36.6522 19.1894 35.9795 18.8086 35.0951 18.6573Z" fill="#C7C7C7"/>
</g>
</g>
<defs>
<clipPath id="clip0_18_1450">
<rect width="52" height="52" fill="white"/>
</clipPath>
</defs>
</svg>
