<svg width="52" height="52" viewBox="0 0 52 52" fill="none" xmlns="http://www.w3.org/2000/svg">
<g id="Frame" clip-path="url(#clip0_18_1516)">
<g id="Group">
<path id="Vector" d="M26.0003 0.000457764C11.6407 0.000457764 0 11.6401 0 26.0008C0 40.3592 11.6407 51.9998 26.0003 51.9998C40.3593 51.9998 52 40.3592 52 26.0008C52 11.64 40.3593 0.000457764 26.0003 0.000457764Z" fill="#255986"/>
<path id="Vector_2" d="M41.3791 40.1124C40.6128 37.2535 34.0525 34.9421 25.9651 34.9421C17.8777 34.9421 11.3872 37.2535 10.6208 40.1124C10.2793 41.3867 9.89128 43.8007 9.55957 46.1414C14.0397 49.8026 19.7632 51.9997 26.0004 51.9997C32.2372 51.9997 37.9605 49.8026 42.4405 46.1415C42.1088 43.8009 41.7208 41.3867 41.3791 40.1124Z" fill="black"/>
<path id="Vector_3" d="M25.9738 33.2229L21.8315 33.7731L22.0265 35.153L25.9694 38.0952L29.9734 35.153L30.1684 33.7731L25.9738 33.2229Z" fill="#D4D6D8"/>
<path id="Vector_4" d="M30.0761 29.5674H21.9243C23.1962 33.4021 22.0268 35.1529 22.0268 35.1529L24.8473 36.5067H27.1531L29.9736 35.1529C29.9736 35.1529 28.8042 33.4021 30.0761 29.5674Z" fill="#CDCDCD"/>
<path id="Vector_5" d="M26.0002 6.4538C21.3839 6.4538 17.6416 8.67221 17.6416 18.3593C17.6416 21.6361 18.228 24.2037 19.106 26.1854C21.0378 30.5451 24.3814 32.0687 26.0002 32.0687C27.6191 32.0687 30.9627 30.5451 32.8943 26.1854C33.7723 24.2037 34.3587 21.6361 34.3587 18.3593C34.3587 8.67221 30.6164 6.4538 26.0002 6.4538Z" fill="white"/>
<path id="Vector_6" d="M27.0935 27.0131C26.7822 26.9671 26.0002 27.2752 26.0002 27.2752C26.0002 27.2752 25.2073 26.968 24.8934 27.0152C24.3905 27.0909 23.6421 27.9536 23.6421 28.0961C23.6421 28.0961 24.6979 28.6463 26.0002 28.6463C27.3025 28.6463 28.3583 28.0961 28.3583 28.0961C28.3583 28.0961 27.604 27.0886 27.0935 27.0131Z" fill="#E7606E"/>
<path id="Vector_7" d="M26.6424 27.7117C26.4379 27.7007 26.1748 27.8865 26.0002 27.8865C25.7985 27.8865 25.4962 27.7028 25.264 27.717C23.8858 27.8019 23.6421 28.0961 23.6421 28.0961C23.6421 28.0961 24.6979 29.0525 26.0002 29.0525C27.3025 29.0525 28.3583 28.0961 28.3583 28.0961C28.3583 28.0961 28.0736 27.7885 26.6424 27.7117Z" fill="#C34B57"/>
<path id="Vector_8" d="M29.965 35.153C29.965 35.153 29.0307 36.9695 25.9695 36.9695C22.9082 36.9695 22.0348 35.153 22.0348 35.153C22.0348 35.153 21.2996 40.8823 26.008 40.8823C30.7162 40.8823 29.965 35.153 29.965 35.153Z" fill="#7F3E09"/>
<path id="Vector_9" d="M25.9998 9.92999C28.4307 9.92999 30.4014 8.5848 30.4014 6.92543C30.4014 5.26606 28.4307 3.92087 25.9998 3.92087C23.5688 3.92087 21.5981 5.26606 21.5981 6.92543C21.5981 8.5848 23.5688 9.92999 25.9998 9.92999Z" fill="#16110E"/>
<path id="Vector_10" d="M25.9999 6.4538C19.9911 6.4538 17.3359 9.08148 17.3359 18.7684C17.3359 18.7684 25.9912 15.9911 25.9912 12.4647C25.9912 15.9911 34.6637 18.7684 34.6637 18.7684C34.6638 9.08148 32.0087 6.4538 25.9999 6.4538Z" fill="black"/>
<path id="Vector_11" d="M17.7923 18.6514C16.9933 18.788 16.3855 19.1321 16.8363 21.7689C17.2873 24.4057 17.8471 24.5283 18.6461 24.3917L17.7923 18.6514ZM34.2179 18.6514L33.3642 24.3917C34.1633 24.5283 34.7232 24.4057 35.174 21.7689C35.6247 19.1321 35.0169 18.788 34.2179 18.6514Z" fill="white"/>
<path id="Vector_12" d="M18.3142 19.1877C18.2756 18.94 18.2609 18.6891 18.2703 18.4386C18.2811 18.1398 18.3212 17.9474 18.3212 17.9474L17.3387 18.3142C17.3369 18.4656 17.3359 18.617 17.3359 18.7683L17.6026 18.6787C17.7376 18.9082 17.9068 19.2606 18.0697 19.7815C18.0697 19.7816 18.4535 20.0675 18.3142 19.1877ZM34.6611 18.3128L33.6825 17.9475C33.6825 17.9475 33.723 18.1409 33.7336 18.4409C33.7409 18.6482 33.7342 18.9058 33.6896 19.1878C33.5504 20.0675 33.9342 19.7817 33.9342 19.7817C34.0966 19.2619 34.2647 18.9095 34.3986 18.6796C34.5683 18.7379 34.6637 18.7685 34.6637 18.7685C34.6638 18.6148 34.6629 18.4629 34.6611 18.3128Z" fill="#261D17"/>
<path id="Vector_13" d="M25.9693 36.5067L22.0347 35.153C22.0347 35.153 24.1539 49.7209 26.0077 49.7209C27.8615 49.7209 29.9648 35.153 29.9648 35.153L25.9693 36.5067Z" fill="#C7C8C9"/>
<path id="Vector_14" d="M25.9695 36.5067L21.7031 35.153C21.7031 35.153 25.9979 49.7209 26.0081 49.7209C26.0183 49.7209 25.9695 36.5067 25.9695 36.5067Z" fill="#D4D6D8"/>
<path id="Vector_15" d="M30.1683 33.7731L25.9977 36.5067C25.9977 36.5067 29.5642 37.5994 29.5818 37.5819L32.0436 35.4024L30.1683 33.7731ZM21.8313 33.7731L19.9561 35.4025L22.4178 37.582C22.4353 37.5995 25.9977 36.5067 25.9977 36.5067L21.8313 33.7731Z" fill="#F3FAFF"/>
<path id="Vector_16" d="M26 51.3017L25.9978 49.7209C25.9978 49.7209 22.4355 37.5994 22.418 37.5819L20.6025 34.8342L19.2925 35.509L20.1309 41.3016L21.8427 40.9172L20.585 42.4544L26 51.3017ZM32.7076 35.5089L31.3975 34.8341L29.5821 37.5819C29.5646 37.5994 26.0022 49.7209 26.0022 49.7209L26 51.3017L31.415 42.4544L30.1573 40.9172L31.8691 41.3016L32.7076 35.5089Z" fill="#2E2E2E"/>
</g>
</g>
<defs>
<clipPath id="clip0_18_1516">
<rect width="52" height="52" fill="white"/>
</clipPath>
</defs>
</svg>
