<svg width="52" height="52" viewBox="0 0 52 52" fill="none" xmlns="http://www.w3.org/2000/svg">
<g id="Frame" clip-path="url(#clip0_18_1496)">
<g id="Group">
<path id="Vector" d="M26.0003 0.000305176C11.6407 0.000305176 0 11.64 0 26.0006C0 40.3591 11.6407 51.9997 26.0003 51.9997C40.3593 51.9997 52 40.3591 52 26.0006C52 11.6399 40.3593 0.000305176 26.0003 0.000305176Z" fill="#255986"/>
<path id="Vector_2" d="M41.3791 40.1124C40.6128 37.2535 34.0525 34.9421 25.9651 34.9421C17.8777 34.9421 11.3872 37.2535 10.6208 40.1124C10.2793 41.3867 9.89117 43.8007 9.55957 46.1414C14.0397 49.8026 19.7631 51.9997 26.0004 51.9997C32.2372 51.9997 37.9603 49.8026 42.4404 46.1415C42.1087 43.8009 41.7207 41.3867 41.3791 40.1124Z" fill="black"/>
<path id="Vector_3" d="M25.9738 33.2229L21.8315 33.7731L22.0266 35.153L25.9694 38.0952L29.9733 35.153L30.1684 33.7731L25.9738 33.2229Z" fill="#969899"/>
<path id="Vector_4" d="M25.974 33.2229L22.0269 35.1531C22.0269 35.1531 23.7905 38.0953 25.9696 38.0953C28.1487 38.0953 29.9736 35.1531 29.9736 35.1531L25.974 33.2229Z" fill="#7F3E09"/>
<path id="Vector_5" d="M22.3084 35.5478L22.0347 35.153C22.0347 35.153 22.1146 35.3179 22.3084 35.5478ZM29.7569 35.4542C29.9019 35.2746 29.9649 35.1531 29.9649 35.1531L29.7569 35.4542ZM25.9694 36.9697C23.829 36.9697 22.759 36.0821 22.3084 35.5478L26.0078 40.8823L29.7568 35.4542C29.3401 35.9702 28.2404 36.9697 25.9694 36.9697Z" fill="black"/>
<path id="Vector_6" d="M30.0761 29.5675H21.9243C23.1962 33.4021 22.0268 35.153 22.0268 35.153L24.8473 36.9697H27.1531L29.9736 35.1531C29.9736 35.1531 28.8042 33.4021 30.0761 29.5675Z" fill="#CDCDCD"/>
<path id="Vector_7" d="M30.1683 33.7731L25.9977 36.9697C25.9977 36.9697 29.5642 37.5994 29.5818 37.5819L32.0435 35.4024L30.1683 33.7731ZM21.8314 33.7731L19.9561 35.4025L22.4178 37.582C22.4354 37.5995 25.9977 36.9698 25.9977 36.9698L21.8314 33.7731Z" fill="#F3FAFF"/>
<path id="Vector_8" d="M26 6.4538C20.8917 6.4538 16.7505 8.67221 16.7505 18.3593C16.7505 21.6361 17.3992 24.2037 18.371 26.1854C20.5086 30.5451 24.2086 32.0687 26 32.0687C27.7913 32.0687 31.4914 30.5451 33.6288 26.1854C34.6004 24.2037 35.2493 21.6361 35.2493 18.3593C35.2493 8.67221 31.1081 6.4538 26 6.4538Z" fill="white"/>
<path id="Vector_9" d="M35.02 14.7531L33.1371 18.323C33.1371 18.323 33.6744 19.2401 33.6482 21.6506L34.0543 21.8471L34.3424 18.9519C34.3424 18.4802 35.2599 18.6811 35.2599 18.6811C35.3367 16.7072 35.02 14.7531 35.02 14.7531ZM18.8612 18.323L16.9783 14.7531C16.9783 14.7531 16.6618 16.7073 16.7386 18.6811C16.7386 18.6811 17.6559 18.4802 17.6559 18.9519L17.9441 21.8471L18.3503 21.6506C18.324 19.2401 18.8612 18.323 18.8612 18.323Z" fill="#474747"/>
<path id="Vector_10" d="M16.9152 18.6573C16.0309 18.8086 15.3582 19.1894 15.8571 22.1077C16.356 25.0261 16.9757 25.1619 17.8601 25.0106L16.9152 18.6573ZM35.0951 18.6573L34.1502 25.0106C35.0346 25.1619 35.6542 25.0262 36.1532 22.1077C36.6522 19.1894 35.9795 18.8086 35.0951 18.6573Z" fill="white"/>
<path id="Vector_11" d="M22.7509 18.4016C21.5084 18.4016 20.4976 19.4125 20.4976 20.6549C20.4976 21.8974 21.5084 22.9082 22.7509 22.9082C23.9933 22.9082 25.0042 21.8974 25.0042 20.6549C25.0042 19.4125 23.9933 18.4016 22.7509 18.4016ZM22.7509 22.3842C21.7972 22.3842 21.0216 21.6084 21.0216 20.6549C21.0216 19.7014 21.7972 18.9256 22.7509 18.9256C23.7044 18.9256 24.4802 19.7014 24.4802 20.6549C24.4802 21.6084 23.7044 22.3842 22.7509 22.3842Z" fill="#261D17"/>
<path id="Vector_12" d="M27.1502 20.716C27.1793 20.3798 27.0732 19.799 25.9888 19.799C24.9043 19.799 24.7982 20.3797 24.8273 20.716C24.8063 20.9949 24.8734 21.2292 24.8734 21.2292C25.0783 20.8012 25.5164 20.5249 25.9888 20.5249C26.4611 20.5249 26.8991 20.8013 27.1041 21.2292C27.1041 21.2292 27.1712 20.9948 27.1502 20.716Z" fill="#261D17"/>
<path id="Vector_13" d="M29.2489 18.4016C28.0065 18.4016 26.9956 19.4125 26.9956 20.6549C26.9956 21.8974 28.0065 22.9082 29.2489 22.9082C30.4914 22.9082 31.5022 21.8974 31.5022 20.6549C31.5022 19.4125 30.4914 18.4016 29.2489 18.4016ZM29.2489 22.3842C28.2953 22.3842 27.5196 21.6084 27.5196 20.6549C27.5196 19.7014 28.2953 18.9256 29.2489 18.9256C30.2024 18.9256 30.9782 19.7014 30.9782 20.6549C30.9782 21.6084 30.2024 22.3842 29.2489 22.3842Z" fill="#261D17"/>
<path id="Vector_14" d="M20.6353 20.5349L20.5704 20.8425L18.0896 20.3192L18.1545 20.0116L20.6353 20.5349Z" fill="#261D17"/>
<path id="Vector_15" d="M33.8745 20.3196L31.394 20.8437L31.329 20.536L33.8095 20.012L33.8745 20.3196Z" fill="#261D17"/>
</g>
</g>
<defs>
<clipPath id="clip0_18_1496">
<rect width="52" height="52" fill="white"/>
</clipPath>
</defs>
</svg>
