<svg width="52" height="52" viewBox="0 0 52 52" fill="none" xmlns="http://www.w3.org/2000/svg">
<g id="Frame" clip-path="url(#clip0_18_1476)">
<g id="Group">
<path id="Vector" d="M26.0003 0.000305176C11.6407 0.000305176 0 11.64 0 26.0006C0 40.3591 11.6407 51.9997 26.0003 51.9997C40.3593 51.9997 52 40.3591 52 26.0006C52 11.6399 40.3593 0.000305176 26.0003 0.000305176Z" fill="#255986"/>
<path id="Vector_2" d="M41.3791 40.1124C40.6128 37.2535 34.0525 34.9421 25.9651 34.9421C17.8777 34.9421 11.3872 37.2535 10.6208 40.1124C10.2793 41.3867 9.89128 43.8007 9.55957 46.1414C14.0397 49.8026 19.7632 51.9997 26.0004 51.9997C32.2372 51.9997 37.9605 49.8026 42.4405 46.1415C42.1088 43.8009 41.7208 41.3867 41.3791 40.1124Z" fill="#4ABC96"/>
<path id="Vector_3" d="M41.3791 40.1124C40.6128 37.2535 34.0525 34.9421 25.9651 34.9421C17.8777 34.9421 11.3872 37.2535 10.6208 40.1124C10.2793 41.3867 9.89128 43.8007 9.55957 46.1414C14.0397 49.8026 19.7632 51.9997 26.0004 51.9997C32.2372 51.9997 37.9605 49.8026 42.4405 46.1415C42.1088 43.8009 41.7208 41.3867 41.3791 40.1124Z" fill="white"/>
<path id="Vector_4" d="M34.3096 35.8519C31.9071 35.278 29.0472 34.942 25.9648 34.942C22.9334 34.942 20.1262 35.2668 17.7609 35.8234C17.2714 38.0983 15.4983 46.367 14.9082 49.5194C18.2726 51.1092 22.0321 51.9997 26.0002 51.9997C29.9361 51.9997 33.667 51.1239 37.0105 49.5581L34.3096 35.8519Z" fill="black"/>
<path id="Vector_5" d="M30.0761 29.5675H21.9243C23.1962 33.4021 22.0268 35.153 22.0268 35.153L24.8473 35.7884H27.1531L29.9736 35.1531C29.9736 35.153 28.8042 33.4021 30.0761 29.5675Z" fill="#CDCDCD"/>
<path id="Vector_6" d="M31.2229 18.3468L19.9499 17.7508C10.4438 27.2993 16.2588 33.4609 18.1251 36.466C21.8809 42.5134 17.7431 44.614 17.7431 44.614L17.946 44.5121C17.946 44.5121 25.2649 43.0997 22.5241 36.5297C21.162 33.265 20.3128 26.2533 31.2229 18.3468Z" fill="black"/>
<path id="Vector_7" d="M26.0002 6.4538C21.3839 6.4538 17.6416 8.67221 17.6416 18.3593C17.6416 21.6361 18.228 24.2037 19.106 26.1854C21.0378 30.5451 24.3814 32.0687 26.0002 32.0687C27.6191 32.0687 30.9627 30.5451 32.8943 26.1854C33.7723 24.2037 34.3587 21.6361 34.3587 18.3593C34.3587 8.67221 30.6164 6.4538 26.0002 6.4538Z" fill="white"/>
<path id="Vector_8" d="M27.0935 27.0132C26.7822 26.9672 26.0002 27.2752 26.0002 27.2752C26.0002 27.2752 25.2073 26.968 24.8934 27.0153C24.3905 27.0909 23.6421 27.9536 23.6421 28.0961C23.6421 28.0961 24.6979 28.6464 26.0002 28.6464C27.3025 28.6464 28.3583 28.0961 28.3583 28.0961C28.3583 28.0961 27.604 27.0886 27.0935 27.0132Z" fill="#E24444"/>
<path id="Vector_9" d="M26.6424 27.7117C26.4379 27.7007 26.1748 27.8865 26.0002 27.8865C25.7985 27.8865 25.4962 27.7028 25.264 27.717C23.8858 27.8019 23.6421 28.0961 23.6421 28.0961C23.6421 28.0961 24.6979 29.0525 26.0002 29.0525C27.3025 29.0525 28.3583 28.0961 28.3583 28.0961C28.3583 28.0961 28.0736 27.7885 26.6424 27.7117Z" fill="#D33D3D"/>
<path id="Vector_10" d="M25.9694 36.9697C22.9081 36.9697 22.0347 35.1531 22.0347 35.1531L26.0078 50.9962L29.9649 35.1531C29.9649 35.1531 29.0305 36.9697 25.9694 36.9697Z" fill="#CDCDCD"/>
<path id="Vector_11" d="M23.5767 41.3016L26.0078 50.9961L28.4291 41.3016H23.5767Z" fill="#F9EFE8"/>
<path id="Vector_12" d="M25.974 33.2229L22.0269 35.1531C22.0269 35.1531 23.7905 38.0953 25.9696 38.0953C28.1487 38.0953 29.9736 35.1531 29.9736 35.1531L25.974 33.2229Z" fill="#CDCDCD"/>
<path id="Vector_13" d="M26 6.4538C25.9999 6.4538 25.9999 6.4538 26 6.4538H25.9998C20.8916 6.4538 16.7505 8.67232 16.7505 18.3593C16.7505 18.3593 25.9913 15.9911 25.9913 12.4646C25.9913 15.991 35.2493 18.3593 35.2493 18.3593C35.2493 8.67232 31.1082 6.4538 26 6.4538Z" fill="black"/>
<path id="Vector_14" d="M17.7923 18.6514C16.9933 18.788 16.3855 19.1321 16.8363 21.7689C17.2873 24.4057 17.8471 24.5283 18.6461 24.3917L17.7923 18.6514ZM34.2179 18.6514L33.3642 24.3917C34.1633 24.5283 34.7232 24.4057 35.174 21.7689C35.6247 19.1321 35.0169 18.788 34.2179 18.6514Z" fill="#CDCDCD"/>
<path id="Vector_15" d="M18.3144 19.0129C18.2052 18.323 18.3214 17.7728 18.3214 17.7728L16.7507 18.3593C16.7507 18.3593 17.7205 18.4889 18.0699 19.6069C18.0699 19.6069 18.4537 19.8928 18.3144 19.0129ZM33.6828 17.7728C33.6828 17.7728 33.799 18.323 33.6898 19.0129C33.5506 19.8927 33.9344 19.6069 33.9344 19.6069C34.2837 18.4889 35.2535 18.3593 35.2535 18.3593L33.6828 17.7728ZM22.5241 36.5297C22.0666 35.433 21.6677 33.9129 21.7522 32.0787H15.5146C16.3101 33.9431 17.4646 35.4025 18.1251 36.466C21.8809 42.5134 17.7431 44.614 17.7431 44.614L17.946 44.5121C17.946 44.5121 25.265 43.0997 22.5241 36.5297Z" fill="black"/>
</g>
</g>
<defs>
<clipPath id="clip0_18_1476">
<rect width="52" height="52" fill="white"/>
</clipPath>
</defs>
</svg>
